<?xml version="1.0" standalone="no"?>
<!DOCTYPE svg PUBLIC "-//W3C//DTD SVG 20010904//EN"
 "http://www.w3.org/TR/2001/REC-SVG-20010904/DTD/svg10.dtd">
<svg version="1.0" xmlns="http://www.w3.org/2000/svg"
 width="400.000000pt" height="400.000000pt" viewBox="0 0 400.000000 400.000000"
 preserveAspectRatio="xMidYMid meet">
<metadata>
Created by potrace 1.11, written by Peter Selinger 2001-2013
</metadata>
<g transform="translate(0.000000,400.000000) scale(0.100000,-0.100000)"
fill="#000000" stroke="none">
<path d="M2016 3993 c-6 -6 7 -15 84 -55 14 -7 31 -18 38 -25 7 -7 16 -13 20
-13 4 0 22 -14 41 -30 18 -17 38 -30 42 -30 5 0 9 -7 9 -15 0 -8 6 -15 14 -15
8 0 18 -9 21 -20 4 -11 11 -18 16 -15 5 4 9 1 9 -5 0 -6 9 -20 20 -32 11 -12
20 -28 20 -35 0 -8 5 -11 10 -8 6 3 10 -1 10 -9 0 -9 5 -16 12 -16 6 0 8 -3 5
-7 -4 -3 3 -18 15 -31 13 -14 17 -22 11 -18 -9 5 -11 2 -7 -8 3 -9 10 -16 16
-16 5 0 7 -4 3 -9 -3 -5 2 -17 11 -25 11 -11 12 -16 3 -16 -10 0 -10 -3 -1
-12 7 -7 12 -21 12 -33 0 -12 6 -27 13 -34 10 -11 9 -12 -3 -6 -13 8 -13 6 -2
-7 8 -9 12 -25 11 -35 -2 -10 3 -29 10 -42 8 -14 9 -21 2 -17 -12 8 -15 -6 -4
-18 11 -10 10 -66 0 -66 -5 0 -4 -6 2 -14 8 -10 9 -16 1 -21 -5 -3 -10 -11
-10 -16 0 -6 6 -7 13 -3 8 6 8 3 -1 -9 -8 -9 -11 -21 -7 -27 3 -5 2 -10 -3
-10 -5 0 -8 -14 -7 -30 1 -17 -2 -33 -7 -36 -4 -3 -8 -16 -8 -30 0 -13 -5 -24
-11 -24 -5 0 -8 -4 -5 -8 3 -5 -2 -22 -10 -38 -9 -16 -15 -31 -15 -34 2 -14
-12 -40 -20 -40 -6 0 -8 -4 -4 -9 3 -5 -2 -16 -11 -25 -8 -9 -13 -20 -9 -25 3
-5 -4 -12 -15 -16 -11 -4 -18 -10 -15 -14 2 -4 -6 -19 -18 -32 -12 -13 -22
-26 -21 -29 0 -3 -15 -19 -33 -37 -18 -17 -33 -30 -33 -27 0 2 -13 -9 -29 -24
-41 -37 -54 -48 -66 -51 -5 -2 -9 -7 -7 -13 1 -5 -2 -7 -7 -4 -5 4 -17 -1 -25
-10 -9 -8 -16 -13 -16 -9 0 3 -14 -4 -32 -16 -18 -14 -28 -17 -24 -8 4 7 -1 4
-12 -8 -11 -12 -22 -20 -25 -16 -4 3 -14 2 -24 -2 -25 -11 -45 -16 -65 -18
-10 -1 -18 -5 -18 -9 0 -4 -9 -5 -20 -3 -11 2 -20 -2 -20 -8 0 -8 -3 -8 -9 2
-6 9 -11 10 -15 2 -4 -6 -12 -9 -17 -6 -5 4 -9 2 -9 -4 0 -6 -7 -8 -15 -5 -8
4 -12 11 -9 18 3 6 0 4 -8 -4 -10 -12 -31 -15 -92 -13 -44 1 -82 6 -85 11 -3
4 -16 7 -28 6 -13 -1 -23 3 -23 8 0 5 -5 6 -10 3 -13 -8 -129 32 -154 54 -16
13 -18 13 -11 1 4 -8 -7 -1 -25 15 -18 17 -30 24 -26 18 11 -20 -2 -15 -33 13
-16 14 -31 24 -33 22 -2 -1 -20 14 -40 35 -20 20 -42 37 -49 37 -7 0 -9 3 -6
7 4 3 -6 19 -22 34 -16 15 -27 30 -23 33 3 3 -2 6 -12 6 -9 0 -14 5 -11 10 3
6 2 10 -3 10 -4 0 -16 16 -25 35 -9 19 -21 35 -27 35 -5 0 -10 12 -10 26 0 14
-4 23 -8 20 -4 -2 -9 5 -9 16 -1 12 -8 25 -15 29 -7 5 -9 9 -5 9 4 0 3 9 -3
21 -6 11 -13 29 -16 40 -2 10 -6 29 -9 42 -4 12 -8 42 -10 67 -3 25 -6 57 -8
73 -3 15 0 30 4 33 5 3 4 14 -1 25 -6 10 -7 19 -2 19 5 0 8 14 7 30 -1 17 2
33 6 35 4 3 5 15 1 27 -3 14 -1 19 6 14 7 -4 10 1 7 13 -3 19 15 85 28 97 12
12 8 26 -5 19 -7 -4 -4 1 6 9 11 9 17 16 13 16 -4 0 -3 9 3 20 6 11 11 37 12
57 0 21 3 42 6 48 12 20 8 65 -5 65 -8 0 -12 -4 -9 -9 3 -5 -2 -8 -12 -7 -9 0
-16 -5 -15 -11 2 -7 -3 -12 -10 -10 -6 1 -11 -4 -10 -10 2 -7 -2 -13 -8 -13
-5 0 -7 -5 -4 -10 3 -6 -1 -13 -9 -16 -9 -3 -14 -10 -11 -14 3 -5 -4 -25 -15
-46 -12 -20 -19 -43 -16 -50 3 -8 1 -14 -5 -14 -6 0 -8 -4 -4 -9 3 -5 1 -12
-4 -15 -5 -4 -8 -17 -7 -31 2 -13 0 -22 -4 -20 -11 7 -16 -13 -16 -52 1 -18
-3 -33 -8 -33 -5 0 -3 -7 4 -15 7 -8 8 -15 3 -15 -11 0 -11 -50 0 -67 6 -9 3
-11 -9 -6 -13 5 -15 3 -9 -7 9 -15 16 -69 17 -127 0 -18 4 -33 8 -33 7 0 8 -8
11 -55 1 -14 6 -25 12 -25 6 0 7 -3 4 -7 -4 -3 0 -17 9 -31 9 -13 11 -21 5
-18 -8 5 -8 0 1 -18 6 -14 15 -26 20 -26 5 0 7 -4 4 -8 -3 -5 1 -20 9 -35 7
-14 10 -29 7 -33 -4 -4 -2 -4 5 0 8 4 15 -2 19 -19 3 -14 10 -25 14 -25 5 0
11 -8 14 -17 9 -27 75 -98 88 -95 7 2 5 -4 -3 -14 -8 -10 -9 -15 -3 -12 5 4
23 -6 38 -23 15 -16 33 -26 38 -22 6 3 8 1 4 -5 -3 -6 -1 -14 6 -19 13 -8 18
-9 39 -12 5 0 8 -5 5 -10 -5 -7 13 -20 34 -23 3 -1 10 -8 16 -16 7 -9 16 -12
24 -7 8 5 11 4 7 -2 -4 -6 14 -19 38 -29 25 -10 45 -21 45 -24 0 -3 12 -6 26
-7 15 0 29 -5 33 -11 3 -5 18 -8 33 -8 14 1 24 -2 22 -6 -3 -4 -2 -8 3 -9 53
-4 124 -17 131 -23 2 -3 13 -1 23 4 10 6 20 7 23 2 8 -13 147 -4 162 11 4 4
13 2 21 -4 9 -8 13 -8 13 -1 0 6 16 9 37 7 24 -2 32 0 22 6 -11 7 -8 9 11 10
14 1 31 2 38 2 6 -1 12 4 12 9 0 6 7 8 15 4 8 -3 15 -1 15 4 0 5 12 13 28 16
15 4 29 10 32 13 3 3 29 17 57 31 29 14 53 31 53 38 0 7 4 11 9 8 5 -3 20 5
35 19 14 13 26 21 26 18 0 -3 21 16 47 43 26 27 50 48 55 47 4 -2 7 0 6 5 -3
15 15 42 25 35 5 -3 7 -2 4 4 -3 5 5 22 19 38 13 15 24 34 24 42 0 7 4 13 9
13 5 0 13 10 17 23 3 12 11 28 17 36 6 7 12 20 13 29 2 8 7 18 12 21 5 3 8 16
7 28 -1 13 3 19 8 16 6 -4 8 0 4 9 -3 9 -2 19 3 24 5 5 11 20 14 34 3 14 7 36
10 49 3 13 6 41 8 63 1 22 6 42 10 45 5 2 4 11 -3 19 -9 11 -8 14 2 14 12 0
12 2 0 9 -9 6 -10 10 -2 16 9 5 9 10 1 20 -8 9 -8 15 0 20 6 4 7 13 1 23 -4 9
-8 29 -7 45 1 15 -2 27 -7 27 -4 0 -6 4 -3 8 7 11 -14 93 -28 111 -9 12 -8 13
4 7 12 -6 11 -4 -1 6 -9 7 -15 25 -15 40 1 14 -2 24 -6 22 -7 -5 -12 10 -9 29
0 4 -3 7 -7 7 -5 0 -14 16 -22 35 -8 19 -17 35 -22 35 -4 0 -7 6 -6 13 2 6 -2
11 -8 10 -6 -1 -11 4 -11 11 0 15 -44 76 -55 76 -4 0 -8 5 -8 10 0 15 -67 80
-81 80 -7 0 -10 3 -6 6 10 10 -22 36 -37 31 -8 -3 -23 1 -35 9 -13 9 -21 11
-21 4 0 -8 -6 -8 -20 0 -11 6 -20 8 -20 4 0 -3 -8 0 -17 7 -14 12 -16 12 -8 0
6 -11 4 -13 -11 -7 -35 14 -54 15 -54 3 0 -9 -3 -9 -8 1 -5 7 -12 9 -16 5z"/>
<path d="M1575 3980 c-4 -6 -10 -8 -15 -5 -12 8 -6 -23 8 -37 7 -7 12 -16 12
-21 0 -4 10 -29 21 -55 12 -26 20 -48 18 -49 -2 -1 5 -9 16 -18 11 -9 14 -13
7 -10 -11 6 -11 3 0 -14 7 -12 16 -21 21 -21 4 0 5 -5 1 -12 -4 -6 1 -17 11
-24 10 -7 15 -20 12 -28 -3 -8 -2 -16 2 -18 5 -2 12 -14 16 -27 5 -17 4 -22
-6 -19 -8 3 -20 -1 -27 -9 -8 -7 -18 -11 -23 -7 -6 3 -16 1 -24 -6 -7 -6 -26
-13 -41 -16 -16 -3 -32 -11 -36 -17 -4 -7 -8 -8 -8 -3 0 5 -6 3 -13 -3 -8 -6
-17 -8 -20 -4 -4 3 -7 1 -7 -4 0 -6 -8 -10 -17 -8 -11 1 -17 9 -15 20 2 9 0
15 -5 12 -4 -3 -9 5 -9 16 -1 12 -5 33 -9 47 -3 14 -7 31 -7 38 -1 6 -4 12 -8
12 -3 0 -6 8 -7 18 -3 43 -8 62 -16 62 -4 0 -5 5 -2 10 3 6 0 10 -7 10 -9 0
-9 3 2 10 12 7 12 10 1 10 -7 0 -11 6 -7 15 3 8 1 15 -4 15 -5 0 -7 7 -4 15 4
8 1 15 -6 15 -6 0 -8 4 -5 10 3 5 1 19 -5 30 -8 16 -15 19 -24 11 -7 -6 -15
-8 -19 -5 -5 5 -1 -11 23 -103 4 -18 5 -33 1 -33 -3 0 0 -4 7 -9 7 -4 14 -24
15 -43 1 -20 6 -34 11 -30 5 3 7 -2 3 -11 -3 -10 -2 -17 3 -17 5 0 7 -6 4 -14
-3 -8 0 -17 6 -21 6 -4 8 -15 5 -25 -3 -10 1 -25 10 -34 12 -12 13 -16 3 -16
-11 0 -11 -2 0 -9 17 -11 14 -20 -21 -53 -15 -16 -24 -28 -20 -28 4 0 -2 -6
-12 -14 -10 -7 -20 -22 -21 -32 -2 -11 -5 -31 -8 -46 -2 -16 0 -28 5 -28 6 0
7 -5 3 -11 -11 -19 45 -106 60 -91 3 3 6 0 6 -6 0 -7 11 -12 25 -12 14 0 25 5
25 10 0 6 4 9 9 8 5 -2 10 2 12 7 1 6 8 16 16 23 13 14 17 132 3 132 -4 0 -6
10 -6 23 1 12 -2 30 -6 40 -6 11 -5 17 2 17 6 0 8 5 4 12 -4 6 -3 8 3 5 5 -3
22 1 37 9 16 7 39 14 51 14 13 0 25 6 27 12 3 7 11 13 19 14 46 3 50 5 43 16
-5 8 -2 9 10 5 10 -4 27 -2 38 4 15 8 19 8 14 0 -4 -6 -3 -11 1 -11 5 0 20
-24 33 -54 13 -30 27 -53 32 -50 4 3 8 1 8 -4 0 -17 35 -47 67 -59 28 -10 34
-9 43 5 5 10 10 13 10 8 0 -5 7 -3 15 4 8 7 12 16 9 21 -3 5 -1 9 4 9 5 0 9
14 8 30 0 17 -4 30 -8 30 -3 0 -5 8 -4 17 7 43 -84 117 -133 110 -29 -4 -78
13 -79 28 -2 21 -36 95 -45 95 -4 0 -5 5 -2 11 4 6 -1 17 -11 25 -11 9 -12 12
-4 8 8 -5 5 4 -8 20 -12 16 -22 37 -22 47 0 9 -5 19 -11 21 -5 2 -11 10 -13
18 -9 45 -40 88 -51 70z"/>
<path d="M2607 3821 c3 -12 9 -18 14 -15 5 3 9 -4 9 -15 0 -11 9 -25 19 -31
26 -13 34 -13 25 3 -5 8 -2 8 9 -2 9 -7 17 -10 17 -6 0 4 8 1 17 -6 9 -8 14
-9 10 -2 -4 7 0 13 10 15 11 2 -1 12 -33 28 -27 14 -52 29 -56 35 -4 5 -10 6
-14 2 -4 -4 -13 -2 -20 4 -9 8 -11 5 -7 -10z"/>
<path d="M2906 3645 c-3 -8 -1 -15 4 -15 6 0 10 7 10 15 0 8 -2 15 -4 15 -2 0
-6 -7 -10 -15z"/>
<path d="M2925 3634 c-13 -28 -14 -54 -2 -54 6 0 7 -3 4 -6 -3 -4 -2 -14 2
-23 9 -16 -11 -46 -23 -34 -3 4 -6 1 -6 -5 0 -7 -3 -11 -7 -10 -12 2 -101 -41
-108 -52 -4 -6 -10 -8 -15 -5 -23 14 -33 -68 -15 -122 3 -7 0 -13 -6 -13 -6 0
-7 -6 -2 -12 11 -18 10 -52 -2 -60 -5 -4 0 -8 13 -8 13 0 21 -4 18 -8 -3 -5 1
-9 9 -10 8 -1 22 -3 30 -4 8 -1 15 -5 15 -10 0 -4 9 -8 20 -8 11 0 20 -4 20
-10 0 -5 9 -10 19 -10 11 0 26 -7 34 -15 8 -8 17 -11 21 -8 3 4 6 2 6 -3 0 -6
-5 -15 -12 -22 -7 -7 -8 -12 -2 -12 6 0 11 -7 11 -15 0 -8 -4 -12 -8 -10 -4 3
-8 -11 -8 -30 -2 -57 -4 -65 -12 -65 -4 0 -6 -11 -4 -25 1 -14 -1 -25 -5 -25
-4 0 -10 -13 -13 -29 l-6 -29 -78 4 c-43 2 -89 6 -101 9 -17 4 -22 2 -16 -6 4
-8 3 -9 -4 -5 -7 4 -20 2 -29 -3 -13 -7 -14 -10 -4 -11 11 0 11 -4 -2 -18 -10
-10 -17 -26 -17 -35 0 -9 -5 -17 -11 -17 -5 0 -7 -4 -4 -10 3 -5 -2 -10 -11
-10 -10 0 -14 -3 -11 -7 4 -3 2 -12 -4 -20 -6 -7 -8 -13 -5 -13 4 0 0 -8 -9
-17 -16 -16 -16 -17 5 -25 14 -5 20 -13 16 -24 -3 -8 -2 -12 3 -9 5 3 12 -4
16 -15 4 -11 11 -17 17 -14 6 4 8 3 5 -3 -4 -5 3 -20 14 -31 11 -12 16 -22 12
-22 -4 0 -1 -5 8 -10 18 -10 18 -56 0 -53 -6 2 -10 0 -8 -5 1 -4 -10 -21 -25
-37 -16 -16 -28 -33 -28 -37 0 -5 -7 -8 -16 -8 -8 0 -13 -3 -11 -7 2 -5 -4
-16 -15 -25 -10 -10 -18 -15 -19 -10 0 4 -4 -2 -8 -12 -10 -26 -44 -29 -68 -6
-12 10 -23 16 -27 13 -3 -3 -8 2 -12 11 -3 9 -12 16 -19 16 -8 0 -20 6 -27 13
-26 27 -60 40 -68 27 -4 -6 -11 -12 -16 -12 -17 -1 -44 -25 -36 -33 4 -5 2 -5
-4 -2 -6 4 -32 -7 -57 -23 -25 -15 -49 -25 -53 -22 -6 6 0 -49 11 -98 2 -8 4
-25 4 -38 1 -13 4 -21 9 -19 4 3 7 -9 7 -27 0 -26 -6 -34 -32 -47 -18 -9 -30
-13 -28 -9 3 5 -6 3 -19 -3 -13 -7 -23 -14 -21 -17 2 -3 -7 -5 -18 -6 -27 -1
-59 -8 -72 -15 -16 -9 -81 -12 -72 -3 4 4 0 18 -8 30 -8 13 -16 32 -18 42 -1
11 -11 31 -21 46 -9 15 -15 34 -12 42 4 10 -4 14 -32 15 -20 1 -41 0 -47 -1
-5 -1 -20 -2 -32 -2 -13 0 -23 -6 -23 -12 0 -6 -4 -5 -9 3 -5 7 -13 11 -19 7
-6 -3 -13 -2 -17 3 -4 7 -15 7 -30 1 -14 -5 -25 -6 -26 -2 0 4 -5 -4 -11 -18
-6 -14 -10 -28 -10 -32 1 -5 -2 -8 -8 -8 -6 0 -9 -3 -8 -7 0 -5 -2 -17 -6 -28
-10 -25 -13 -38 -14 -49 0 -5 -5 -12 -12 -16 -6 -4 -12 -16 -13 -27 0 -13 -6
-19 -14 -16 -7 3 -10 10 -7 15 4 6 -1 6 -13 -1 -11 -6 -23 -7 -27 -4 -3 3 -18
8 -33 10 -43 5 -57 8 -68 14 -5 4 -18 5 -28 4 -10 -2 -14 1 -10 8 4 6 0 8 -10
4 -10 -3 -17 -2 -17 3 0 6 -6 9 -12 8 -16 -4 -19 180 -3 201 7 11 7 13 -2 7
-7 -4 -13 -2 -13 3 0 6 -7 11 -15 11 -8 0 -15 5 -15 10 0 6 -12 10 -26 10 -17
0 -23 4 -18 12 5 8 2 9 -10 5 -10 -4 -19 -1 -22 8 -4 8 -14 15 -24 15 -10 0
-20 5 -22 10 -4 14 -48 22 -48 9 0 -6 -4 -8 -9 -4 -6 3 -15 -4 -21 -15 -6 -11
-17 -20 -25 -20 -8 0 -15 -4 -15 -9 0 -5 -9 -11 -21 -14 -14 -4 -18 -10 -13
-19 4 -7 4 -10 -1 -6 -4 4 -16 1 -27 -6 -21 -15 -58 -10 -58 8 0 6 -12 20 -27
30 -15 11 -23 13 -18 5 5 -7 -12 8 -38 35 -25 27 -48 54 -50 60 -2 6 9 30 25
54 16 23 24 42 18 42 -6 0 -8 5 -5 10 4 6 11 7 17 4 7 -5 9 0 5 15 -3 14 1 24
13 31 25 14 15 67 -19 100 -9 8 -17 21 -19 28 -1 7 -11 23 -22 35 -11 11 -20
28 -20 38 0 13 -9 17 -35 17 -20 0 -35 -5 -35 -11 0 -7 -4 -6 -9 2 -8 12 -12
12 -25 2 -13 -11 -16 -11 -16 0 0 9 -3 10 -8 4 -9 -12 -104 -16 -96 -4 3 5 0
9 -5 9 -6 0 -10 3 -9 8 1 4 -4 20 -11 36 -6 16 -13 36 -14 45 -1 9 -6 21 -10
27 -3 6 -8 25 -9 43 -1 17 -6 31 -10 31 -4 0 -2 11 4 25 6 14 13 23 16 20 3
-3 11 0 19 6 7 6 13 8 13 3 0 -5 4 -4 8 1 4 6 32 23 63 38 58 28 74 51 57 81
-6 11 -6 22 2 31 7 9 8 15 0 20 -5 3 -10 29 -10 56 0 45 -16 81 -35 79 -28 -2
-35 2 -30 13 4 6 -5 -1 -19 -18 -14 -16 -23 -31 -21 -34 3 -2 -4 -10 -15 -18
-11 -8 -20 -21 -20 -29 0 -8 -5 -14 -11 -14 -6 0 -8 -7 -5 -16 3 -8 2 -12 -4
-9 -6 3 -10 0 -10 -9 0 -8 -3 -16 -7 -18 -11 -4 -70 -127 -79 -160 -3 -16 -10
-28 -15 -28 -5 0 -8 -3 -7 -7 1 -5 -4 -24 -11 -43 -7 -19 -15 -42 -17 -50 -6
-30 -13 -55 -14 -55 -2 0 -3 -16 -4 -36 -1 -20 -6 -43 -12 -50 -6 -8 -9 -26
-8 -42 2 -15 -1 -25 -5 -23 -4 3 -8 -1 -8 -9 0 -8 5 -11 11 -8 6 4 5 0 -2 -9
-10 -13 -10 -17 0 -21 10 -4 10 -6 1 -6 -18 -1 -18 -221 0 -240 9 -11 9 -13 0
-7 -15 8 -18 -10 -3 -19 6 -3 10 -12 10 -18 0 -7 -4 -6 -10 3 -6 9 -10 10 -10
3 0 -6 4 -14 8 -17 5 -3 9 -19 10 -36 0 -17 6 -38 13 -46 9 -11 8 -14 -2 -14
-9 0 -10 -3 -4 -8 6 -4 12 -18 13 -32 2 -14 8 -26 12 -28 5 -2 6 -10 3 -18 -3
-8 0 -21 7 -29 7 -9 10 -18 7 -22 -4 -3 -2 -12 3 -19 6 -6 13 -23 15 -35 3
-13 9 -25 14 -27 6 -2 7 -10 4 -18 -3 -8 1 -14 8 -14 7 0 9 -3 6 -7 -4 -3 1
-15 10 -26 13 -15 14 -18 3 -12 -11 6 -10 3 3 -12 9 -11 14 -23 10 -26 -3 -4
-1 -7 5 -7 7 0 12 -7 12 -16 0 -8 5 -12 11 -8 8 4 9 0 4 -15 -4 -13 -2 -21 5
-21 6 0 8 -4 5 -10 -3 -5 -1 -10 5 -10 7 0 9 -7 6 -15 -3 -9 1 -18 9 -21 8 -4
12 -10 9 -15 -3 -5 0 -9 5 -9 6 0 10 -3 9 -7 -2 -12 36 -93 44 -93 3 0 9 -14
13 -30 4 -17 13 -30 21 -30 8 0 13 -3 12 -7 -4 -15 13 -53 23 -53 6 0 7 -4 4
-10 -3 -5 -1 -10 4 -10 6 0 11 -7 11 -15 0 -8 5 -15 11 -15 5 0 8 -4 5 -9 -3
-5 1 -14 9 -21 8 -7 15 -17 15 -22 0 -8 11 -24 36 -51 6 -6 9 -21 7 -32 -2
-11 -1 -14 3 -7 8 18 24 4 17 -15 -4 -11 -3 -14 5 -9 11 6 17 -5 13 -26 0 -5
3 -8 9 -8 5 0 10 -7 10 -15 0 -8 5 -15 11 -15 5 0 8 -4 5 -9 -3 -5 1 -12 10
-15 8 -3 12 -10 9 -16 -3 -5 -1 -10 5 -10 6 0 8 -4 5 -10 -3 -5 -1 -10 4 -10
6 0 11 -7 11 -15 0 -8 5 -15 10 -15 6 0 10 -9 10 -20 0 -11 5 -20 10 -20 6 0
10 -6 10 -14 0 -7 6 -19 14 -26 8 -6 12 -18 9 -26 -3 -8 0 -14 6 -14 6 0 11
-9 11 -20 0 -11 4 -20 8 -20 4 0 9 -12 10 -27 1 -15 7 -30 13 -34 6 -3 10 -9
10 -13 -1 -3 -1 -9 0 -13 1 -5 0 -18 -1 -30 -1 -13 3 -23 8 -23 12 0 10 -19
-2 -39 -6 -10 -5 -12 2 -7 14 8 13 12 15 -112 1 -50 -2 -92 -7 -92 -4 0 -3 -7
4 -15 9 -11 9 -15 1 -15 -7 0 -9 -4 -6 -10 3 -5 3 -10 -2 -10 -4 0 -9 -17 -9
-38 -1 -35 -10 -104 -15 -109 -1 -2 -2 -6 -3 -10 -1 -5 -4 -12 -7 -18 -4 -5
-5 -18 -4 -27 2 -10 -1 -18 -6 -18 -5 0 -9 -8 -9 -17 0 -24 -23 -87 -35 -95
-6 -5 -4 -8 5 -8 9 0 11 -3 5 -8 -14 -10 -39 -55 -26 -47 8 4 7 -2 0 -19 -7
-14 -16 -23 -22 -19 -6 3 -7 1 -3 -6 4 -6 0 -23 -9 -38 -9 -14 -12 -23 -7 -19
6 3 0 -13 -12 -36 -43 -81 -119 -74 785 -74 444 1 810 3 813 6 2 3 8 19 11 35
10 47 10 49 16 60 4 6 5 18 4 27 -2 10 0 18 4 18 4 0 8 12 9 27 1 15 6 29 11
32 4 3 7 14 5 24 -1 10 4 17 14 17 14 0 14 2 3 9 -9 6 -10 11 -3 15 6 4 8 14
5 23 -4 11 -3 14 5 9 11 -6 14 0 11 20 0 3 7 16 15 30 9 13 13 24 9 24 -5 0 0
5 10 11 9 6 15 14 12 20 -4 5 -1 9 4 9 6 0 11 7 11 15 0 8 5 15 12 15 6 0 8 3
5 7 -4 3 2 13 13 20 11 8 17 19 14 25 -4 6 -2 8 3 5 6 -4 13 -1 16 6 5 14 51
38 96 52 18 6 22 4 15 -6 -6 -11 -5 -12 7 -3 17 14 49 14 49 1 0 -5 7 -4 15 3
12 10 15 10 15 -1 0 -10 3 -10 12 -1 7 7 17 8 28 2 9 -5 34 -10 56 -12 22 -2
44 -7 49 -10 6 -3 27 -5 48 -4 20 1 37 -3 37 -9 0 -5 5 -3 10 5 6 10 10 11 10
3 0 -7 5 -13 11 -13 5 0 8 4 5 9 -7 10 19 9 30 -1 3 -4 17 -4 30 -2 15 3 24 0
24 -8 0 -10 2 -10 9 1 6 9 11 10 15 2 4 -6 12 -8 18 -5 10 7 48 13 93 17 11 1
22 5 25 9 3 3 12 8 20 10 19 4 60 49 54 59 -2 4 3 9 11 12 8 4 12 15 10 27 -2
11 1 20 7 20 6 0 5 7 -3 17 -9 10 -9 14 -2 10 9 -6 11 3 9 31 -1 21 -5 43 -7
48 -3 5 -5 21 -4 36 0 15 -3 24 -8 21 -5 -3 -8 3 -7 13 4 33 0 45 -11 38 -8
-5 -8 -1 0 14 14 27 14 35 -1 26 -7 -5 -8 -3 -2 7 4 8 9 20 10 27 2 8 10 22
18 31 9 10 16 24 16 32 0 8 11 24 25 37 15 14 22 29 18 39 -4 11 -2 14 5 9 20
-12 13 2 -12 27 -14 14 -22 28 -18 33 4 4 2 4 -4 1 -7 -4 -17 0 -24 8 -7 8
-20 15 -29 16 -10 0 -12 2 -3 6 6 2 10 9 6 14 -3 5 1 9 8 9 13 1 61 41 88 75
13 17 13 18 0 11 -12 -7 -12 -6 1 8 16 18 14 76 -3 76 -5 0 -7 4 -4 9 3 5 -1
11 -9 15 -8 3 -15 12 -15 20 0 8 -5 16 -12 18 -6 2 -12 25 -13 51 -1 25 2 44
6 41 5 -3 9 2 9 10 0 9 5 16 11 16 5 0 8 4 5 9 -5 8 81 51 103 51 6 0 11 5 11
11 0 5 3 8 8 6 4 -3 23 6 42 19 19 13 30 24 25 24 -5 0 1 7 14 16 19 14 22 22
17 53 -3 20 -7 42 -8 49 -1 6 -4 12 -7 12 -4 0 -12 9 -19 21 -11 17 -11 20 0
14 7 -5 4 1 -8 12 -11 11 -26 35 -33 52 -8 17 -17 28 -22 25 -5 -3 -9 2 -9 10
0 9 -5 16 -11 16 -5 0 -8 4 -5 9 3 4 -3 19 -14 31 -11 12 -22 31 -25 41 -4 11
-11 19 -16 19 -5 0 -9 7 -9 15 0 8 -4 15 -10 15 -5 0 -10 7 -10 15 0 8 -5 15
-12 15 -6 0 -9 3 -5 6 3 3 -3 15 -14 27 -10 11 -19 27 -19 34 0 7 -5 13 -11
13 -5 0 -8 4 -5 8 3 5 -4 15 -15 22 -21 16 -27 36 -6 24 8 -6 8 -3 -2 9 -13
17 -24 97 -12 97 3 0 7 14 8 31 1 18 9 41 16 53 8 11 13 29 11 39 -1 9 2 17 8
17 6 0 4 7 -3 17 -12 14 -12 16 0 8 11 -6 13 -3 9 13 -4 12 -2 22 4 22 5 0 7
4 4 8 -9 14 -15 93 -7 88 4 -3 8 1 8 9 0 8 -4 12 -9 9 -7 -5 -10 17 -11 88 0
15 -3 25 -7 23 -4 -2 -7 9 -8 26 0 17 -7 38 -14 47 -9 12 -10 14 0 8 6 -4 12
-3 12 3 0 5 -5 11 -11 13 -5 2 -11 18 -11 36 -1 17 -5 32 -10 32 -4 0 -8 11
-8 24 0 14 -5 28 -10 31 -6 4 -8 10 -5 15 3 5 1 11 -5 15 -6 4 -8 11 -5 16 4
5 1 9 -4 9 -6 0 -10 3 -9 8 2 11 -13 45 -31 66 -13 16 -13 18 -1 12 13 -7 13
-6 0 6 -8 7 -16 20 -18 28 -2 8 -8 18 -14 21 -5 3 -8 9 -6 12 1 4 -5 15 -14
26 -9 11 -15 21 -13 23 2 2 -7 17 -20 32 -14 16 -22 32 -20 37 3 4 -4 10 -15
14 -11 4 -18 11 -15 16 4 5 1 9 -4 9 -6 0 -11 6 -11 13 0 7 -9 19 -20 27 -11
8 -20 18 -20 23 0 5 -11 18 -25 29 -14 11 -23 24 -19 29 3 5 2 8 -3 7 -4 -2
-27 16 -49 40 -23 23 -47 42 -53 42 -6 0 -11 7 -11 16 0 8 -5 12 -10 9 -6 -3
-14 4 -18 16 -8 21 -9 21 -17 3z"/>
</g>
</svg>
